# xmcd
#
# Track frame offsets:
#	150
#	13935
#	26020
#	38165
#	52275
#	66427
#	77595
#	89540
#	101107
#	111555
#	126315
#	138752
#	150617
#	162510
#	178052
#	192245
#	204252
#	212225
#	222025
#	237067
#
# Disc length: 3312
#
# Revision: 2
# Processed by: cddbd v1.5.1PL0 Copyright (c) Steve Scherf et al.
# Submitted via: CDex 1.40Release
# Normalized: r0:TDELIM( - ),TSWAP
#
DISCID=280cee14
DTITLE=Blandad Country - Women of Country
DYEAR=1900
DGENRE=Country
TTITLE0=Lynn Anderson - Rose garden
TTITLE1=Donna Fargo - Funny face
TTITLE2=Wanda Jackson - Right or wrong
TTITLE3=Jeannie Seely - Don't touch me
TTITLE4=Billie Jo Spears - Mr Walker it's all over
TTITLE5=Sandy Posey - Single girl
TTITLE6=Bonnie Guitar - Dark moon
TTITLE7=Kitty Wells - It wasn't god who made honky tonk angels
TTITLE8=Connie Smith - Once a day
TTITLE9=Jeannie C Riley - The harper valley P T A
TTITLE10=Jeanne Pruett - Satin sheets
TTITLE11=Donna Fargo - The happiest girl in the whole USA
TTITLE12=Lynn Anderson - You're my man
TTITLE13=Melba Montgomery - No charge
TTITLE14=Barbara Fairchild - The teddy bear song
TTITLE15=Skeeter Davis - The end of the world
TTITLE16=Susan Rye - I've got a happy heart
TTITLE17=Sandy Posey - Born a woman
TTITLE18=Donna Fargo - You were always there
TTITLE19=Sammi Smith - Help me make it through the night
EXTD=ID3G: 2
EXTT0=
EXTT1=
EXTT2=
EXTT3=
EXTT4=
EXTT5=
EXTT6=
EXTT7=
EXTT8=
EXTT9=
EXTT10=
EXTT11=
EXTT12=
EXTT13=
EXTT14=
EXTT15=
EXTT16=
EXTT17=
EXTT18=
EXTT19=
PLAYORDER=
